<?xml version="1.0" standalone="no"?>
<!DOCTYPE svg PUBLIC "-//W3C//DTD SVG 20010904//EN"
 "http://www.w3.org/TR/2001/REC-SVG-20010904/DTD/svg10.dtd">
<svg version="1.0" xmlns="http://www.w3.org/2000/svg"
 width="1563.000000pt" height="1563.000000pt" viewBox="0 0 1563.000000 1563.000000"
 preserveAspectRatio="xMidYMid meet">

<g transform="translate(0.000000,1563.000000) scale(0.100000,-0.100000)"
fill="#000000" stroke="none">
<path d="M0 7815 l0 -7815 7815 0 7815 0 0 7815 0 7815 -7815 0 -7815 0 0
-7815z m4267 3449 c-3 -3 -12 -4 -19 -1 -8 3 -5 6 6 6 11 1 17 -2 13 -5z
m4217 -50 c136 -13 360 -101 511 -199 76 -49 168 -129 281 -243 68 -68 128
-121 134 -117 6 3 10 -3 10 -15 0 -12 5 -18 10 -15 6 3 10 1 10 -5 0 -6 5 -8
10 -5 6 3 10 -1 10 -10 0 -15 2 -15 17 1 13 13 14 19 5 22 -9 3 -7 12 7 36 11
17 22 45 25 61 11 70 26 184 31 239 3 32 15 84 28 115 19 48 29 59 67 79 27
13 62 22 91 22 62 0 148 -28 164 -54 22 -34 40 -256 50 -626 4 -127 3 -1008
-1 -1175 -14 -613 -29 -721 -105 -760 -58 -30 -217 -8 -219 30 0 6 -4 11 -10
11 -5 1 -14 2 -18 3 -23 3 -43 83 -57 219 -23 225 -36 305 -56 324 -9 9 -20
14 -23 10 -8 -7 4 28 14 43 3 6 -1 24 -9 40 -12 22 -22 29 -38 27 -13 -2 -23
-7 -23 -12 0 -13 -39 -8 -44 6 -3 7 5 9 20 6 14 -2 24 0 24 7 0 6 7 11 15 11
8 0 15 9 15 20 0 11 -7 20 -15 20 -8 0 -15 -4 -15 -10 0 -5 -8 -10 -18 -10
-10 0 -24 -11 -31 -24 -7 -13 -24 -29 -37 -35 -13 -6 -24 -15 -24 -21 0 -6 -4
-9 -9 -5 -6 3 -19 -5 -30 -17 -23 -24 -27 -38 -10 -38 6 0 9 -7 5 -15 -3 -8 0
-15 7 -15 8 0 8 -3 2 -8 -6 -4 -12 -17 -12 -30 -2 -18 2 -22 18 -17 23 8 24
-1 3 -22 -13 -13 -13 -17 -2 -24 7 -5 9 -9 3 -9 -5 0 -3 -5 5 -10 11 -7 11
-10 2 -10 -9 0 -6 -14 11 -47 21 -41 33 -66 42 -93 4 -11 17 -46 25 -65 18
-43 38 -100 38 -108 0 -4 3 -26 7 -48 9 -50 -7 -83 -44 -98 -14 -6 -73 -9
-131 -8 -149 4 -159 10 -315 191 -88 102 -168 176 -189 176 -12 0 -30 -7 -40
-15 -19 -15 -22 -22 -31 -75 -23 -132 -43 -186 -90 -232 -24 -24 -95 -48 -143
-48 -37 0 -93 22 -121 48 -54 51 -63 81 -85 307 -3 28 -8 73 -11 100 -3 28 -7
84 -9 125 -6 124 -7 1741 -1 1750 3 5 1 20 -4 33 l-10 25 -165 -3 c-182 -4
-201 -7 -217 -36 -12 -23 -22 -122 -11 -115 4 2 8 -99 8 -225 1 -126 -3 -229
-7 -229 -5 0 -9 -250 -9 -557 0 -307 -2 -567 -4 -578 -4 -21 -14 -158 -21
-300 -6 -115 -14 -173 -33 -233 -25 -80 -37 -87 -154 -89 -56 -1 -109 2 -119
8 -76 40 -88 243 -90 1499 -1 545 -5 785 -13 809 -18 55 -47 69 -171 80 -126
12 -204 32 -230 61 -14 15 -16 29 -11 64 8 53 15 59 85 80 77 23 226 32 706
42 264 6 308 4 365 -11 35 -9 77 -23 93 -31 30 -16 58 -12 81 11 18 18 127 55
146 50 8 -2 46 -7 84 -11z m-3230 -106 c75 -32 156 -94 197 -150 l31 -43 -32
-3 c-27 -3 -39 5 -82 47 -73 73 -159 113 -256 119 -66 4 -141 -8 -533 -82
-435 -82 -461 -86 -590 -85 -74 0 -127 3 -119 7 8 3 267 54 575 113 507 98
569 108 655 105 76 -2 107 -8 154 -28z m-2491 -318 c-3 -12 -8 -19 -11 -16 -5
6 5 36 12 36 2 0 2 -9 -1 -20z m1697 0 c0 -5 -5 -10 -11 -10 -5 0 -7 5 -4 10
3 6 8 10 11 10 2 0 4 -4 4 -10z m-1654 -28 c-17 -16 -18 -16 -5 5 7 12 15 20
18 17 3 -2 -3 -12 -13 -22z m2913 -36 c-2 -2 -13 8 -23 22 l-19 27 24 -22 c12
-12 21 -24 18 -27z m-749 -21 c14 -19 14 -19 -2 -6 -10 7 -18 18 -18 24 0 6 1
8 3 6 1 -2 9 -13 17 -24z m-1575 -14 c-6 -5 -25 10 -25 20 0 5 6 4 14 -3 8 -7
12 -15 11 -17z m2266 2 c13 -16 12 -17 -3 -4 -17 13 -22 21 -14 21 2 0 10 -8
17 -17z m494 -115 c20 -24 48 -64 61 -90 57 -112 54 43 54 -2674 0 -1759 -3
-2518 -11 -2559 -30 -163 -143 -293 -312 -357 -51 -20 -74 -20 -1737 -20
l-1685 0 -57 22 c-165 61 -277 191 -307 354 -8 42 -11 632 -11 1980 l1 1921
29 -35 29 -35 3 -1915 c3 -2022 1 -1944 45 -2005 15 -20 15 -20 8 2 -16 57
138 427 251 601 127 196 313 396 494 530 527 394 1227 502 1852 286 589 -203
1060 -682 1249 -1269 22 -71 44 -137 46 -145 8 -22 33 42 44 110 13 83 12
4991 -2 5066 -18 100 -75 192 -159 256 -33 26 -33 28 -17 46 9 10 14 22 10 27
-5 5 13 -6 39 -23 25 -18 63 -51 83 -74z m-4066 -23 c-12 -19 -23 -35 -25 -35
-2 0 -59 -12 -126 -26 -147 -31 -219 -65 -281 -134 -71 -79 -100 -148 -104
-250 -4 -78 15 -186 221 -1275 l226 -1190 -2 -143 -3 -143 -254 1341 c-290
1534 -278 1441 -206 1587 45 91 117 168 196 209 43 22 258 76 371 93 4 1 -2
-15 -13 -34z m3425 -13 c3 -5 -1 -9 -9 -9 -8 0 -12 4 -9 9 3 4 7 8 9 8 2 0 6
-4 9 -8z m-3234 -51 c0 -6 -4 -12 -8 -15 -5 -3 -9 1 -9 9 0 8 4 15 9 15 4 0 8
-4 8 -9z m-296 -346 c9 -51 16 -143 16 -212 l0 -121 -50 -11 c-28 -6 -53 -11
-55 -11 -2 0 2 13 7 28 9 23 5 61 -18 183 -27 145 -30 154 -53 157 -20 3 -12
11 50 48 40 24 77 40 80 36 4 -4 14 -47 23 -97z m4433 -2392 c-1 -450 -2 -82
-2 817 0 899 1 1267 2 818 2 -450 2 -1186 0 -1635z m-1897 2407 c0 -5 -2 -10
-4 -10 -3 0 -8 5 -11 10 -3 6 -1 10 4 10 6 0 11 -4 11 -10z m-1840 -20 c0 -5
-4 -10 -10 -10 -5 0 -10 5 -10 10 0 6 5 10 10 10 6 0 10 -4 10 -10z m530 6 c0
-2 -7 -7 -16 -10 -8 -3 -12 -2 -9 4 6 10 25 14 25 6z m-1855 -95 c-6 -27 -15
-33 -93 -61 -48 -17 -113 -45 -144 -62 -163 -87 -245 -289 -190 -468 10 -36
256 -710 546 -1499 l527 -1434 -3 -77 -3 -77 -540 1471 c-297 809 -555 1514
-573 1566 -31 88 -33 102 -29 185 8 152 75 280 188 358 47 32 307 140 317 131
2 -1 1 -16 -3 -33z m1851 11 c-4 -3 -14 2 -24 12 -16 18 -16 18 6 6 13 -6 21
-14 18 -18z m48 13 c-4 -8 -11 -15 -16 -15 -6 0 -5 6 2 15 7 8 14 15 16 15 2
0 1 -7 -2 -15z m-667 -81 c-3 -3 -12 -4 -19 -1 -8 3 -5 6 6 6 11 1 17 -2 13
-5z m1643 -65 c0 -4 -8 -13 -17 -20 -16 -13 -17 -12 -5 3 11 14 11 21 -4 45
l-16 28 21 -25 c11 -14 21 -28 21 -31z m-50 -44 c0 -17 2 -17 10 -5 6 9 10 10
10 3 0 -26 -19 -21 -34 8 -20 40 -21 59 -1 33 8 -10 15 -28 15 -39z m-255 -14
c3 -5 1 -12 -4 -15 -5 -3 -11 1 -15 9 -6 16 9 21 19 6z m-39 -27 c-9 -8 -20
-12 -26 -9 -19 12 -10 25 16 25 23 0 24 -1 10 -16z m-1172 -33 c4 -5 -3 -7
-14 -4 -23 6 -26 13 -6 13 8 0 17 -4 20 -9z m-1351 -75 c31 -12 34 -19 46 -82
15 -85 5 -112 -69 -205 -27 -34 -48 -64 -46 -66 2 -2 38 9 79 25 l76 29 11
-50 c6 -27 9 -51 8 -52 -9 -6 -231 -85 -233 -83 -2 2 13 53 32 113 43 136 52
225 26 275 -14 28 -24 35 -48 35 -38 0 -43 -23 -16 -76 12 -22 21 -41 21 -43
0 -6 -96 -76 -103 -76 -10 0 5 72 25 128 25 66 70 119 112 131 43 13 43 13 79
-3z m1732 -64 c-3 -3 -11 0 -18 7 -9 10 -8 11 6 5 10 -3 15 -9 12 -12z m-305
-106 c0 -2 -7 -7 -16 -10 -8 -3 -12 -2 -9 4 6 10 25 14 25 6z m710 -146 c0 -5
-4 -10 -10 -10 -5 0 -10 5 -10 10 0 6 5 10 10 10 6 0 10 -4 10 -10z m-1220
-21 c0 -6 -4 -7 -10 -4 -5 3 -10 11 -10 16 0 6 5 7 10 4 6 -3 10 -11 10 -16z
m-33 -36 c-16 -16 -16 -18 1 -37 17 -21 17 -21 -6 -2 -21 18 -21 20 -6 38 10
10 20 18 23 18 3 0 -2 -8 -12 -17z m46 -48 c-3 -9 -8 -14 -10 -11 -3 3 -2 9 2
15 9 16 15 13 8 -4z m-26 -37 c-3 -8 -6 -5 -6 6 -1 11 2 17 5 13 3 -3 4 -12 1
-19z m2600 -28 c9 -25 17 -30 43 -30 l33 0 -27 -21 c-15 -12 -25 -26 -23 -33
2 -6 8 -22 12 -35 l7 -24 -31 23 c-28 20 -34 20 -49 8 -36 -31 -41 -30 -30 7
10 31 9 36 -13 54 l-24 20 33 1 c28 0 33 4 39 30 3 17 8 30 12 30 4 0 12 -13
18 -30z m-1176 -23 c-10 -9 -11 -8 -5 6 3 10 9 15 12 12 3 -3 0 -11 -7 -18z
m126 -131 c-82 -22 -137 -92 -137 -175 0 -105 77 -181 185 -181 56 0 92 18
134 65 36 42 39 35 8 -20 -87 -153 -303 -150 -384 5 -34 64 -28 164 13 223 38
54 120 97 183 96 l46 0 -48 -13z m1629 -434 c-3 -5 -19 -12 -34 -15 -37 -7
-88 -50 -109 -90 -9 -18 -16 -54 -16 -82 0 -59 20 -102 63 -138 29 -25 86 -47
120 -47 39 0 90 23 123 57 40 39 45 38 23 -5 -64 -123 -241 -150 -343 -52 -72
67 -85 200 -28 282 35 49 111 93 168 96 21 2 36 -1 33 -6z m-2222 -242 l38 -5
-32 -18 c-17 -11 -29 -24 -27 -30 2 -7 8 -23 12 -36 l7 -23 -30 17 c-29 18
-32 18 -57 1 l-27 -18 7 33 c7 29 4 36 -21 56 l-29 23 37 0 c33 0 38 3 49 38
l12 37 12 -35 c10 -30 17 -36 49 -40z m1258 -210 l33 -1 -28 -23 c-25 -20 -27
-25 -17 -51 14 -36 9 -40 -22 -15 -26 20 -26 20 -51 0 -34 -27 -38 -25 -25 12
10 29 9 33 -18 55 l-29 23 37 0 c32 0 37 4 48 33 l11 32 14 -32 c12 -28 19
-33 47 -33z m-1480 -361 c111 -24 217 -101 286 -209 l36 -55 7 29 c4 15 11 65
14 109 10 131 9 129 58 125 l42 -3 7 -55 c3 -30 7 -116 8 -190 1 -74 5 -164 9
-200 l6 -65 60 0 60 0 7 -61 c11 -98 25 -138 69 -187 72 -82 156 -88 234 -16
58 53 80 112 79 209 -1 147 -88 249 -214 250 -37 1 -101 33 -134 68 -43 46
-48 118 -12 172 36 55 92 81 172 81 87 0 147 -33 176 -97 10 -24 16 -49 13
-54 -3 -6 -24 -10 -45 -10 -37 0 -40 2 -51 40 -17 58 -50 90 -91 90 -101 -1
-135 -158 -52 -231 11 -9 46 -20 79 -24 108 -13 200 -77 247 -174 32 -64 32
-168 0 -232 -30 -62 -82 -113 -145 -146 -72 -37 -190 -38 -257 -4 -72 37 -109
70 -146 127 -19 30 -39 52 -44 49 -10 -6 -17 -39 -25 -128 l-7 -68 -46 3 -47
3 -11 105 c-7 58 -14 133 -17 168 -2 34 -7 65 -10 68 -3 3 -18 -12 -33 -33
-15 -21 -38 -49 -49 -63 -12 -14 -24 -32 -27 -40 -3 -9 13 -56 37 -105 23 -50
40 -93 38 -97 -5 -10 -85 -10 -99 0 -6 4 -29 33 -53 65 -30 41 -48 57 -65 57
-32 0 -43 -16 -51 -77 l-7 -53 -43 0 c-36 0 -44 4 -49 23 -8 29 -8 811 0 831
7 19 17 19 86 5z m1640 0 c83 -18 160 -64 238 -145 40 -41 74 -74 75 -74 5 0
25 96 33 160 l7 55 45 3 45 3 16 -53 16 -53 12 30 c7 17 17 40 22 53 8 20 15
23 51 20 41 -3 42 -4 53 -48 14 -57 33 -58 63 -2 25 45 42 58 66 49 12 -5 8
-24 -19 -107 l-32 -101 31 -93 c17 -52 33 -100 35 -107 2 -8 14 -50 26 -94 13
-44 31 -116 40 -160 28 -129 33 -129 33 0 -1 196 14 618 23 643 8 22 11 22
188 22 99 0 186 -3 195 -6 9 -3 16 -14 16 -24 0 -26 -19 -30 -155 -30 -97 0
-125 -3 -135 -15 -17 -20 -8 -124 11 -136 8 -5 58 -9 111 -9 109 0 128 -5 128
-30 0 -21 -42 -30 -150 -30 -41 0 -82 -5 -90 -10 -12 -8 -16 -48 -18 -239 -2
-153 1 -237 8 -251 10 -18 20 -20 125 -20 118 0 165 -10 165 -34 0 -23 -24
-26 -215 -26 -175 0 -184 1 -190 20 -8 26 -25 26 -25 -1 0 -18 -5 -20 -46 -17
-52 3 -48 -2 -100 116 -45 101 -56 97 -81 -32 l-17 -87 -45 3 -45 3 -17 55
c-15 52 -17 54 -26 30 -6 -14 -14 -40 -18 -57 -6 -31 -9 -33 -50 -33 -24 0
-46 4 -49 8 -2 4 -9 46 -15 92 -16 126 -32 210 -40 210 -7 0 -67 -61 -89 -91
-9 -13 -4 -33 28 -105 22 -49 40 -95 40 -101 0 -9 -16 -13 -48 -13 -47 0 -49
1 -98 63 -73 92 -104 88 -119 -16 l-7 -48 -47 3 -46 3 -8 110 c-9 138 -5 726
6 743 10 15 22 15 89 1z m-1762 -29 c0 -30 0 -30 -57 -30 -32 0 -65 -5 -73
-10 -13 -8 -16 -67 -20 -397 l-5 -388 -39 -3 c-21 -2 -42 0 -47 5 -4 4 -11
181 -15 393 -3 212 -8 388 -11 393 -2 4 -33 7 -68 7 -67 0 -80 8 -70 40 6 19
15 20 206 20 l199 0 0 -30z m1640 0 c0 -30 0 -30 -59 -30 -95 0 -90 19 -90
-351 0 -176 -4 -349 -7 -385 l-7 -64 -39 0 c-32 0 -40 4 -48 26 -6 15 -10 176
-10 388 0 268 -3 365 -12 374 -7 7 -38 12 -70 12 -60 0 -77 12 -64 45 4 13 37
15 206 15 l200 0 0 -30z m5840 -55 c77 -8 159 -25 197 -41 17 -8 36 -14 43
-14 17 0 103 -36 206 -86 49 -24 95 -44 102 -44 7 0 12 -4 12 -9 0 -11 71 -54
77 -47 3 3 14 -4 26 -15 17 -16 71 -26 109 -20 4 0 5 -6 2 -14 -4 -10 0 -15
14 -15 26 0 53 -10 48 -19 -2 -3 7 -6 20 -6 30 0 30 1 -2 18 -23 12 -24 15
-10 26 13 11 16 11 16 -2 0 -28 68 -33 94 -7 13 13 4 13 -29 0 -15 -6 -31 -7
-37 -4 -17 11 21 34 55 34 16 0 26 4 22 10 -3 6 -2 10 3 10 6 0 8 9 5 19 -4
16 -1 19 16 14 15 -4 21 -1 21 11 0 9 4 16 8 16 5 0 16 17 25 38 41 92 115
129 252 125 70 -3 155 -21 155 -34 0 -18 78 -9 146 17 67 25 84 26 231 20 11
-1 19 -4 16 -8 -2 -5 5 -8 16 -8 24 0 91 -38 91 -52 0 -6 11 -19 25 -30 13
-10 24 -24 22 -30 -1 -6 10 -11 25 -12 14 -1 24 2 22 6 -3 4 0 8 6 8 14 0 54
30 60 45 3 6 24 20 48 33 83 44 218 10 229 -57 1 -8 8 -18 15 -22 11 -7 11 -9
0 -9 -7 0 -10 -4 -7 -10 19 -31 24 -110 7 -126 -8 -9 -9 -14 -2 -14 6 0 8 -4
5 -10 -3 -5 1 -10 10 -10 9 0 13 -4 10 -10 -3 -5 -1 -10 5 -10 6 0 4 -7 -5
-16 -23 -23 -5 -37 29 -24 15 5 25 6 21 1 -3 -5 5 -11 17 -14 l23 -4 -25 -11
c-19 -8 -21 -11 -7 -11 10 -1 15 -5 12 -11 -4 -6 6 -10 22 -9 15 0 22 3 16 6
-20 8 -15 23 7 23 11 0 20 5 20 11 0 6 9 23 20 39 11 15 17 30 14 33 -3 3 -2
11 2 18 4 8 9 29 11 48 2 20 9 38 15 42 6 4 8 14 5 23 -3 8 -2 18 4 21 5 4 7
10 4 15 -6 9 38 66 69 90 11 8 43 23 70 32 44 15 86 16 307 13 248 -4 392 -9
604 -20 117 -7 132 -9 141 -18 4 -4 14 -7 23 -7 24 0 81 -67 81 -95 0 -35 -57
-113 -94 -129 -18 -7 -77 -17 -132 -21 -54 -4 -110 -9 -124 -10 -142 -15 -180
-19 -210 -19 -19 -1 -38 -5 -42 -11 -5 -6 -8 -5 -8 3 0 7 -5 10 -11 7 -5 -4
-22 -8 -37 -10 -14 -1 -28 -8 -30 -14 -2 -7 -9 -8 -21 -1 -21 11 -60 2 -62
-14 -4 -34 4 -122 12 -126 5 -3 7 -20 5 -38 -3 -20 1 -35 9 -39 7 -5 14 -12
14 -18 0 -5 5 -11 12 -14 8 -2 10 2 6 13 -4 9 -2 16 3 16 5 0 11 -9 15 -19 4
-13 12 -18 22 -14 10 4 14 2 9 -5 -7 -12 28 -27 43 -17 5 3 12 1 15 -4 6 -9
116 -30 171 -33 17 0 46 -4 65 -8 19 -5 62 -11 95 -14 62 -6 128 -33 122 -51
-2 -5 7 -18 20 -28 36 -28 32 -90 -7 -127 -17 -16 -45 -33 -63 -39 -37 -12
-185 -34 -237 -36 -19 -1 -55 -4 -80 -8 -68 -10 -122 -16 -148 -17 -13 0 -20
-4 -17 -10 3 -5 -3 -10 -15 -10 -11 0 -23 -7 -26 -15 -4 -8 -11 -15 -18 -15
-17 0 -47 -38 -36 -45 6 -4 10 -15 10 -26 0 -11 -3 -18 -7 -16 -5 3 -9 -32
-10 -76 -1 -45 -6 -93 -11 -107 -5 -14 -7 -31 -5 -38 3 -7 -1 -20 -9 -29 -9
-12 -9 -15 0 -9 8 5 12 0 12 -13 0 -12 -5 -21 -11 -21 -7 0 -9 -9 -5 -22 16
-53 18 -80 5 -73 -9 6 -11 -21 -5 -126 8 -155 8 -222 0 -264 -3 -20 -2 -26 4
-17 6 10 9 -2 10 -35 0 -175 7 -321 13 -317 4 2 4 -9 -1 -24 -4 -16 -4 -35 0
-42 5 -7 6 -20 2 -28 -4 -11 -1 -14 12 -9 10 4 15 3 11 -3 -3 -6 -3 -11 2 -11
4 -1 24 -3 43 -5 19 -2 42 -7 50 -10 8 -3 44 -8 80 -11 36 -2 81 -6 100 -9 70
-10 117 -13 237 -18 127 -5 178 -19 220 -58 19 -17 23 -32 23 -78 0 -109 -45
-122 -450 -135 -96 -3 -202 -8 -235 -10 -52 -5 -355 -7 -570 -4 -38 1 -108 -1
-155 -4 -48 -3 -105 -1 -129 4 -45 10 -154 85 -145 100 3 5 -2 9 -10 9 -9 0
-16 5 -16 10 0 6 -7 10 -17 10 -9 0 -13 3 -9 7 4 4 -10 15 -31 25 -21 9 -30
17 -20 17 9 1 17 6 17 12 0 6 -7 8 -16 5 -9 -3 -20 -6 -25 -6 -4 0 -6 -7 -3
-15 5 -12 -1 -15 -27 -13 -23 2 -33 -1 -32 -9 2 -8 -4 -10 -14 -6 -13 5 -15 2
-10 -11 4 -9 3 -15 -2 -12 -4 3 -13 -6 -20 -20 -6 -14 -15 -23 -20 -20 -5 3
-16 -5 -24 -18 -41 -63 -208 -94 -322 -61 -33 9 -63 21 -66 26 -3 6 -15 11
-27 12 -12 0 -24 8 -27 16 -4 10 -9 12 -13 5 -10 -16 -92 -59 -127 -68 -16 -4
-64 -7 -105 -6 -104 3 -109 3 -104 12 3 4 -5 8 -17 8 -12 0 -37 11 -55 25 -19
14 -36 25 -39 25 -3 0 -19 7 -36 16 -31 15 -32 15 -53 -8 -48 -54 -118 -76
-231 -73 -58 2 -167 28 -189 46 -6 5 -30 24 -53 43 -26 21 -38 36 -30 39 7 3
5 6 -5 6 -10 1 -18 -5 -18 -11 -1 -7 -7 -1 -15 13 -8 15 -26 30 -41 33 -14 4
-33 14 -41 21 -8 8 -25 15 -38 15 -13 0 -27 5 -30 10 -3 6 -13 10 -21 10 -8 0
-13 -4 -10 -9 3 -5 -5 -16 -19 -25 -14 -9 -25 -21 -25 -26 0 -15 -47 -80 -72
-99 -72 -56 -169 -74 -261 -47 -61 18 -127 67 -127 95 0 9 -5 22 -12 29 -12
12 -16 26 -20 75 -1 15 -5 27 -8 27 -4 0 -7 6 -8 13 -1 22 -10 55 -21 75 -6
11 -7 22 -4 26 3 3 -2 15 -12 26 -10 11 -15 20 -12 20 9 0 -24 74 -37 82 -8 6
-8 8 1 8 6 0 15 -4 18 -10 3 -5 11 -10 17 -10 16 0 -56 64 -112 100 -25 15
-63 32 -85 36 -22 3 -48 8 -57 10 -9 1 -19 -4 -22 -12 -7 -17 6 -18 22 -2 8 8
12 8 12 1 0 -9 54 -24 95 -27 6 -1 20 -11 31 -23 12 -13 26 -23 31 -23 6 0 16
-7 23 -15 10 -12 10 -15 -4 -15 -9 0 -16 5 -16 10 0 6 -9 10 -19 10 -11 0 -22
6 -25 13 -5 10 -7 10 -12 0 -9 -20 -24 -15 -24 7 0 17 -7 20 -45 20 -25 0 -45
-4 -45 -9 0 -5 -7 -17 -16 -26 -15 -15 -15 -18 2 -37 15 -17 16 -20 3 -16 -27
10 -39 -6 -43 -59 -2 -28 -6 -55 -10 -61 -3 -6 -8 -32 -10 -59 -3 -26 -9 -62
-14 -80 -6 -17 -8 -34 -6 -36 8 -8 -45 -98 -68 -116 -36 -28 -109 -48 -164
-45 -133 7 -191 73 -210 244 -3 25 -9 78 -15 118 -5 41 -7 78 -3 83 3 5 1 9
-4 9 -11 0 -19 37 -27 124 -3 32 -10 67 -15 77 -6 10 -10 31 -10 48 0 17 -4
31 -10 31 -5 0 -10 7 -10 15 0 8 -4 15 -10 15 -5 0 -10 9 -10 20 0 13 -7 20
-18 20 -10 0 -24 9 -32 20 -10 14 -26 20 -52 20 -31 0 -38 4 -38 20 0 13 -7
20 -20 20 -19 0 -25 -17 -22 -61 1 -9 -8 -19 -20 -22 -19 -5 -19 -7 -5 -21 16
-17 13 -54 -8 -71 -6 -5 -20 -28 -31 -50 -10 -22 -24 -46 -32 -54 -10 -11 -11
-16 -1 -22 8 -5 0 -18 -27 -43 -24 -22 -33 -36 -24 -36 12 -1 12 -2 -2 -10 -9
-6 -29 -31 -44 -57 -29 -50 -43 -67 -121 -145 -91 -93 -137 -126 -283 -201
-150 -78 -253 -102 -440 -102 -163 0 -216 6 -310 37 -202 65 -356 172 -479
333 -52 68 -131 214 -131 243 0 8 -6 28 -14 45 -19 42 -36 159 -36 249 0 81
20 151 53 187 49 54 151 75 239 51 36 -10 103 -75 106 -102 1 -7 6 -40 11 -73
6 -33 13 -91 17 -130 9 -89 10 -97 17 -115 3 -8 11 -33 18 -55 6 -22 15 -44
19 -50 3 -5 12 -29 20 -52 7 -23 20 -50 29 -60 9 -10 23 -31 31 -48 17 -35
118 -138 175 -178 57 -40 108 -52 225 -51 95 1 111 4 165 30 64 32 211 166
200 184 -3 5 -2 10 3 10 25 0 91 163 108 270 3 19 11 38 18 42 8 6 8 13 -2 29
-8 12 -9 18 -2 14 7 -5 9 29 7 116 -2 68 -8 124 -13 126 -5 2 -9 23 -8 48 0
25 -3 48 -8 51 -5 3 -6 9 -3 14 3 5 1 11 -5 15 -6 4 -7 11 -4 17 4 6 1 14 -5
18 -7 4 -13 17 -14 28 -1 12 -5 22 -9 22 -4 0 -8 11 -8 24 0 13 -9 35 -20 49
-11 14 -20 30 -20 36 0 6 -4 11 -10 11 -5 0 -10 6 -10 13 0 12 -96 117 -107
117 -4 0 -14 6 -22 14 -24 22 -137 76 -159 76 -10 0 -21 3 -25 6 -3 4 -32 8
-64 10 -32 3 -82 11 -112 20 -29 8 -65 17 -80 19 -69 9 -227 102 -286 167
-146 162 -183 322 -122 521 52 167 239 318 447 360 121 25 310 20 390 -11 8
-3 23 -6 33 -7 46 -5 197 -105 252 -166 75 -83 104 -143 112 -224 5 -53 2 -73
-13 -103 -20 -40 -44 -63 -56 -56 -5 3 -8 1 -8 -3 0 -28 -132 -42 -190 -20
-14 5 -33 10 -43 12 -22 5 -55 42 -63 73 -3 12 -10 22 -15 22 -5 0 -9 9 -9 20
0 11 -4 28 -9 38 -5 9 -19 42 -32 72 -28 63 -75 114 -115 124 -16 4 -36 14
-46 22 -11 10 -18 12 -23 5 -3 -6 -19 -11 -35 -11 -16 0 -35 -7 -44 -15 -8 -8
-19 -15 -25 -15 -15 0 -48 -38 -69 -79 -31 -60 -45 -137 -38 -215 10 -117 10
-121 25 -127 8 -3 15 -13 17 -22 5 -39 110 -127 133 -112 5 2 11 -1 14 -8 3
-9 29 -14 77 -15 40 -1 77 -5 83 -9 6 -3 22 -8 36 -9 62 -7 213 -55 235 -76 6
-4 16 -8 23 -8 20 0 174 -92 180 -107 3 -7 11 -13 18 -13 15 0 143 -126 198
-194 22 -28 44 -50 50 -48 5 2 7 -4 3 -13 -3 -9 -2 -14 3 -11 13 8 31 -17 33
-47 1 -14 5 -24 8 -22 6 3 36 -27 34 -35 -3 -13 9 -29 18 -24 13 8 48 -35 55
-68 4 -21 11 -28 29 -28 25 0 30 9 15 26 -5 5 -11 22 -13 38 -2 24 1 30 20 33
15 2 21 -1 16 -8 -3 -6 5 -4 19 5 32 22 44 0 14 -27 -11 -9 -17 -20 -13 -24 4
-4 11 -2 15 5 4 7 18 11 31 10 17 -2 25 3 28 16 2 10 20 34 39 53 26 26 32 38
23 47 -8 8 -13 7 -20 -4 -5 -8 -12 -11 -16 -7 -4 4 3 15 14 26 17 14 22 30 22
64 0 30 5 47 14 50 9 4 12 14 9 26 -3 12 -9 18 -14 15 -12 -7 -12 19 0 32 6 5
13 63 16 129 4 66 10 132 15 147 5 15 5 40 0 56 -4 17 -3 49 3 76 8 35 7 52
-2 70 -9 16 -11 44 -7 87 15 150 17 229 7 229 -6 0 -10 6 -8 13 1 6 -4 11 -10
10 -7 -2 -13 2 -13 9 0 6 -3 8 -6 5 -4 -3 -14 -2 -24 3 -9 5 -41 12 -71 15
-178 17 -205 28 -239 95 -27 53 -26 117 3 151 38 46 92 66 197 74 36 3 83 8
105 11 72 9 893 15 899 5 3 -4 17 -6 31 -3 16 3 25 0 25 -8 0 -9 11 -10 38 -6
20 3 44 7 52 7 8 1 17 5 20 9 10 13 76 28 110 24 19 -2 60 -6 90 -9z m3180
-400 c0 -8 -4 -15 -10 -15 -5 0 -7 7 -4 15 4 8 8 15 10 15 2 0 4 -7 4 -15z
m-4623 -1111 c-9 -9 -28 6 -21 18 4 6 10 6 17 -1 6 -6 8 -13 4 -17z m-2458
-429 c0 -51 -7 -100 -19 -135 l-18 -55 0 225 0 225 18 -90 c10 -49 19 -126 19
-170z m-4452 -267 c-1 -68 -3 -15 -3 117 0 132 2 187 3 123 2 -64 2 -172 0
-240z m6930 320 c-3 -8 -6 -5 -6 6 -1 11 2 17 5 13 3 -3 4 -12 1 -19z m843
-337 c0 -5 -7 -11 -14 -14 -10 -4 -13 -1 -9 9 6 15 23 19 23 5z m-7127 -827
c18 -9 55 -38 83 -63 27 -25 77 -59 110 -76 54 -28 67 -30 164 -30 l105 0 236
88 c212 78 244 87 305 87 39 0 64 -4 59 -9 -6 -4 -148 -58 -317 -120 -279
-101 -313 -111 -375 -111 -134 0 -250 47 -338 136 -55 56 -93 114 -75 114 6 0
25 -7 43 -16z m384 -350 c-3 -3 -12 -4 -19 -1 -8 3 -5 6 6 6 11 1 17 -2 13 -5z
m130 0 c-3 -3 -12 -4 -19 -1 -8 3 -5 6 6 6 11 1 17 -2 13 -5z"/>
<path d="M8280 11169 c0 -5 5 -7 10 -4 6 3 10 8 10 11 0 2 -4 4 -10 4 -5 0
-10 -5 -10 -11z"/>
<path d="M8450 11165 c98 -16 114 -17 82 -4 -13 5 -56 11 -95 14 l-72 5 85
-15z"/>
<path d="M7573 11153 c59 -2 155 -2 215 0 59 1 10 3 -108 3 -118 0 -167 -2
-107 -3z"/>
<path d="M7943 11153 c15 -2 37 -2 50 0 12 2 0 4 -28 4 -27 0 -38 -2 -22 -4z"/>
<path d="M8568 11143 c7 -3 16 -2 19 1 4 3 -2 6 -13 5 -11 0 -14 -3 -6 -6z"/>
<path d="M8260 11081 c-11 -21 -15 -1925 -4 -2131 17 -323 21 -144 23 953 0
658 -1 1197 -4 1197 -2 0 -9 -9 -15 -19z"/>
<path d="M8740 11087 c0 -3 15 -10 32 -16 18 -6 28 -7 23 -2 -12 10 -55 25
-55 18z"/>
<path d="M8822 11046 c7 -8 16 -12 21 -9 4 2 7 -1 7 -6 0 -6 6 -11 13 -11 8 0
46 -23 86 -51 211 -148 365 -361 435 -600 112 -387 6 -784 -284 -1070 l-88
-87 145 -238 c80 -132 149 -243 155 -249 18 -17 -2 35 -42 110 -174 326 -178
338 -149 395 9 19 29 48 45 65 94 102 200 265 239 370 39 106 66 183 70 207 3
13 12 58 20 100 20 95 15 144 -30 303 -48 168 -94 268 -173 380 -104 147 -229
263 -384 356 -82 49 -110 61 -86 35z"/>
<path d="M8550 10070 c0 -534 3 -970 8 -970 20 0 156 78 220 127 428 327 510
1048 171 1510 -94 127 -240 242 -374 293 l-25 10 0 -970z m147 863 c46 -21
130 -99 192 -177 95 -119 152 -248 197 -441 23 -99 26 -354 5 -460 -16 -85
-73 -240 -114 -315 -91 -166 -282 -340 -339 -309 -40 21 -37 -48 -53 1281 -2
206 0 362 6 382 15 56 47 67 106 39z"/>
<path d="M8679 10833 c11 -4 10 -9 -6 -22 -20 -15 -20 -23 -13 -136 4 -66 8
-102 10 -80 3 36 4 33 10 -20 4 -41 2 -67 -7 -82 -15 -27 -17 -53 -3 -53 6 0
10 -7 10 -15 0 -8 -4 -15 -10 -15 -6 0 -10 -33 -10 -80 0 -47 4 -80 10 -80 6
0 10 -18 10 -40 0 -22 -4 -40 -10 -40 -5 0 -10 -9 -10 -20 0 -11 5 -20 10 -20
6 0 10 -57 10 -150 0 -127 2 -150 15 -150 8 0 15 -7 15 -15 0 -22 -4 -30 -12
-28 -5 2 -8 -6 -8 -17 0 -11 6 -20 13 -20 8 0 22 -9 32 -20 10 -11 13 -20 7
-20 -7 0 -12 -11 -12 -25 0 -29 -3 -28 41 -14 86 28 139 61 139 89 0 12 2 12
9 2 6 -10 10 -9 14 7 6 24 3 25 -23 11 -16 -8 -18 -8 -14 5 4 8 1 15 -5 15 -6
0 -11 -7 -11 -15 0 -8 -4 -15 -10 -15 -14 0 -8 21 13 45 10 11 28 37 40 58 12
22 26 36 34 33 8 -3 13 2 13 13 0 10 3 21 7 24 3 4 5 38 4 77 -1 38 2 70 6 70
5 0 7 15 5 33 -2 17 -5 79 -8 137 -2 58 -8 106 -14 108 -5 2 -10 17 -10 33 0
16 -4 29 -10 29 -5 0 -10 14 -10 30 0 17 -5 30 -10 30 -7 0 -7 6 0 20 8 14 8
20 0 20 -6 0 -8 5 -5 10 3 6 1 10 -5 10 -6 0 -9 4 -5 10 3 5 0 19 -7 32 -38
69 -74 126 -92 145 -50 54 -71 73 -82 73 -6 0 -17 7 -24 15 -7 8 -20 15 -29
14 -12 0 -13 -2 -2 -6z m106 -1133 c-3 -5 -10 -10 -16 -10 -5 0 -9 5 -9 10 0
6 7 10 16 10 8 0 12 -4 9 -10z"/>
<path d="M8920 9820 c0 -5 5 -10 10 -10 6 0 10 5 10 10 0 6 -4 10 -10 10 -5 0
-10 -4 -10 -10z"/>
<path d="M8862 9684 c-7 -8 -40 -22 -72 -31 -35 -11 -60 -24 -60 -32 0 -8 6
-11 18 -6 9 4 45 15 78 26 34 10 67 26 74 34 7 8 11 15 9 16 -2 0 -11 2 -19 4
-8 1 -21 -4 -28 -11z"/>
<path d="M9600 11028 c-2 -24 -33 -479 -41 -608 -15 -232 -15 -236 -24 -305
-4 -37 -1 -131 9 -240 8 -99 17 -265 20 -370 12 -439 29 -772 41 -784 3 -2 5
516 5 1152 0 637 -2 1157 -5 1157 -3 0 -5 -1 -5 -2z"/>
<path d="M7265 11000 c11 -5 30 -9 41 -9 12 -1 35 -16 52 -35 24 -28 30 -44
34 -102 3 -38 6 -454 8 -924 1 -470 4 -857 6 -859 2 -2 4 281 4 630 0 349 2
786 4 972 l4 337 -86 -1 c-58 0 -80 -3 -67 -9z"/>
<path d="M7681 9873 c0 -626 2 -1133 4 -1128 11 31 16 297 21 1165 4 684 9
975 18 999 21 64 50 75 204 79 75 1 141 7 146 12 7 7 -62 10 -192 10 l-202 0
1 -1137z"/>
<path d="M9884 9920 c0 -542 3 -904 6 -805 8 212 8 1496 0 1670 -3 66 -6 -323
-6 -865z"/>
<path d="M8720 9049 c-36 -15 -89 -33 -117 -40 l-53 -12 1 -161 c2 -170 2
-170 31 18 9 58 16 74 42 98 80 73 160 51 240 -66 44 -64 168 -226 177 -232 6
-3 -19 42 -55 100 -36 58 -96 154 -132 214 -37 59 -67 108 -68 108 0 1 -30
-11 -66 -27z"/>
<path d="M7403 9015 c0 -27 2 -38 4 -22 2 15 2 37 0 50 -2 12 -4 0 -4 -28z"/>
<path d="M4065 6664 c-120 -11 -231 -29 -319 -50 -663 -161 -1196 -647 -1415
-1289 -22 -67 -44 -141 -47 -166 -6 -44 -4 -48 38 -92 24 -26 49 -47 56 -47 7
0 12 -4 12 -9 0 -11 78 -53 106 -56 16 -2 20 1 17 15 -12 45 63 297 136 453
214 462 666 828 1164 942 583 133 1182 -37 1606 -457 96 -96 200 -227 264
-335 95 -158 182 -385 217 -565 6 -32 16 -58 21 -58 18 0 84 38 103 59 19 21
19 21 1 15 -13 -5 -16 -4 -11 5 5 8 18 10 32 7 19 -5 30 2 64 45 22 28 40 56
40 62 0 5 -3 7 -7 4 -3 -4 -21 45 -39 108 -60 208 -168 423 -305 608 -308 416
-753 690 -1265 777 -111 19 -380 33 -469 24z m-190 -124 c3 -5 -1 -10 -10 -10
-9 0 -13 5 -10 10 3 6 8 10 10 10 2 0 7 -4 10 -10z m660 -30 c-3 -11 -2 -20 3
-20 6 0 12 5 14 12 3 8 6 7 10 -4 5 -11 0 -15 -18 -14 -23 1 -27 7 -17 34 8
20 15 14 8 -8z m71 -32 c-15 -10 -19 -3 -10 24 7 22 7 22 14 3 4 -11 3 -23 -4
-27z m-821 4 c-3 -3 -11 0 -18 7 -9 10 -8 11 6 5 10 -3 15 -9 12 -12z m969 10
c2 -4 -4 -8 -14 -8 -10 0 -16 4 -14 8 3 4 9 8 14 8 5 0 11 -4 14 -8z m-1054
-22 c0 -11 -4 -20 -10 -20 -5 0 -10 9 -10 20 0 11 5 20 10 20 6 0 10 -9 10
-20z m-115 -10 c3 -5 1 -10 -4 -10 -6 0 -11 5 -11 10 0 6 2 10 4 10 3 0 8 -4
11 -10z m213 -21 c-15 -10 -28 -2 -28 17 0 12 4 12 20 2 13 -8 16 -15 8 -19z
m921 10 c-16 -10 -23 -4 -14 10 3 6 11 8 17 5 6 -4 5 -9 -3 -15z m-1198 -12
c-6 -8 -7 -18 -3 -22 4 -5 1 -5 -6 -1 -10 6 -10 11 -1 22 6 8 14 14 16 14 3 0
0 -6 -6 -13z m143 7 c23 -9 20 -32 -6 -44 -21 -10 -21 -10 -5 3 23 19 22 26
-5 37 -13 5 -18 9 -11 9 6 1 18 -2 27 -5z m1009 -9 c-3 -9 -8 -14 -10 -11 -3
3 -2 9 2 15 9 16 15 13 8 -4z m-1113 -19 c0 -8 -7 -16 -15 -20 -12 -4 -13 -2
-2 14 14 24 17 25 17 6z m50 -16 c0 -5 -2 -10 -4 -10 -3 0 -8 5 -11 10 -3 6
-1 10 4 10 6 0 11 -4 11 -10z m-510 -194 c0 -3 -4 -8 -10 -11 -5 -3 -10 -1
-10 4 0 6 5 11 10 11 6 0 10 -2 10 -4z m-2 -36 c24 -1 25 -2 9 -11 -24 -14
-47 -4 -46 18 0 11 3 13 6 6 2 -7 17 -13 31 -13z m2282 -30 c0 -5 -5 -10 -11
-10 -5 0 -7 5 -4 10 3 6 8 10 11 10 2 0 4 -4 4 -10z m30 0 c0 -5 -2 -10 -4
-10 -3 0 -8 5 -11 10 -3 6 -1 10 4 10 6 0 11 -4 11 -10z m-2389 -46 c8 -10 21
-13 36 -9 29 7 30 -1 2 -15 -17 -10 -25 -7 -46 14 -14 14 -21 26 -16 26 6 0
16 -7 24 -16z m2422 -25 c-6 -21 -28 -25 -38 -8 -4 6 -14 8 -22 5 -8 -3 -11
-1 -8 4 3 6 11 10 16 10 6 0 18 7 26 16 19 18 33 3 26 -27z m-2448 1 c12 -19
-12 -10 -31 11 -19 22 -19 22 3 10 12 -6 25 -16 28 -21z m-51 -57 c-12 -13
-15 -13 -11 -3 4 8 10 24 14 35 6 18 8 18 11 3 2 -10 -4 -26 -14 -35z m51 -1
c-3 -3 -11 0 -18 7 -9 10 -8 11 6 5 10 -3 15 -9 12 -12z m2520 -22 c-10 -11
-21 -18 -23 -15 -3 3 3 12 14 20 27 20 30 18 9 -5z m62 -7 c2 -6 -4 -10 -13
-9 -9 0 -19 -5 -21 -11 -3 -8 4 -13 17 -13 12 0 18 -4 15 -11 -4 -6 -9 -8 -13
-5 -3 3 -11 -2 -18 -12 -12 -15 -12 -14 -7 7 5 20 3 23 -11 18 -19 -7 -15 4
12 36 16 18 33 18 39 0z m-2686 -18 c5 3 6 -1 3 -9 -8 -20 -20 -20 -28 0 -10
25 -6 41 5 21 6 -9 14 -15 20 -12z m16 19 c-3 -3 -12 -4 -19 -1 -8 3 -5 6 6 6
11 1 17 -2 13 -5z m-42 -72 c-6 -7 -35 18 -35 31 0 5 9 2 20 -8 11 -10 18 -20
15 -23z m-81 -8 c3 -8 2 -12 -4 -9 -6 3 -10 10 -10 16 0 14 7 11 14 -7z m2802
1 c-8 -8 -18 -15 -22 -15 -3 0 -1 7 6 15 7 8 17 15 22 15 5 0 3 -7 -6 -15z
m-2816 -37 c0 -6 -3 -8 -6 -5 -4 3 -16 1 -28 -5 -19 -10 -20 -10 -7 5 16 19
41 23 41 5z m45 -45 c4 -15 2 -23 -5 -23 -6 0 -9 4 -6 9 3 4 -1 17 -9 27 -8
10 -15 23 -15 29 0 16 27 -18 35 -42z m2794 35 c8 3 11 0 7 -7 -10 -16 -31
-14 -47 6 -13 15 -12 15 6 6 11 -6 26 -8 34 -5z m61 -53 c0 -8 -4 -17 -10 -20
-6 -4 -10 5 -10 20 0 15 4 24 10 20 6 -3 10 -12 10 -20z m-2920 -6 c0 -6 -4
-7 -10 -4 -5 3 -10 11 -10 16 0 6 5 7 10 4 6 -3 10 -11 10 -16z m-54 -40 c4
-23 3 -23 -11 -5 -18 24 -19 39 -3 34 6 -2 13 -15 14 -29z m46 13 c15 -6 14
-9 -7 -19 -14 -6 -25 -7 -25 -2 0 5 6 9 13 9 8 0 7 4 -3 10 -17 11 -4 12 22 2z
m-212 -252 c0 -5 -2 -10 -4 -10 -3 0 -8 5 -11 10 -3 6 -1 10 4 10 6 0 11 -4
11 -10z m70 -34 c0 -1 -6 -3 -12 -4 -7 0 -22 -2 -33 -5 -11 -2 -14 -2 -7 0 6
3 12 11 12 19 0 12 4 12 20 4 11 -6 20 -12 20 -14z m-84 -15 c-4 -5 0 -11 6
-14 7 -2 10 -7 7 -11 -3 -3 -14 3 -24 14 -17 18 -17 20 -1 20 9 0 15 -4 12 -9z
m12 -67 c1 -1 -5 -7 -14 -15 -14 -11 -15 -10 -12 7 2 15 -2 18 -21 16 -20 -2
-22 0 -11 13 12 14 15 14 34 -2 12 -10 22 -18 24 -19z m-51 -60 c-3 -3 -12 -4
-19 -1 -8 3 -5 6 6 6 11 1 17 -2 13 -5z m3501 -14 c4 -12 3 -13 -10 -2 -9 7
-23 10 -32 6 -9 -3 -16 -1 -16 6 0 17 52 8 58 -10z m-3538 -11 c0 -11 -4 -18
-10 -14 -5 3 -7 12 -3 20 7 21 13 19 13 -6z m77 -21 c-3 -7 -5 -2 -5 12 0 14
2 19 5 13 2 -7 2 -19 0 -25z m3392 -5 c0 -25 -1 -26 -9 -8 -12 27 -12 35 0 35
6 0 10 -12 9 -27z m31 -18 c-7 -9 -15 -13 -17 -11 -6 6 20 36 26 30 2 -2 -2
-10 -9 -19z m-3524 -45 c1 -16 -3 -27 -7 -24 -11 6 -12 54 -1 54 4 0 7 -13 8
-30z m3561 10 c-1 -11 -5 -20 -9 -20 -10 0 -10 4 -2 24 8 22 13 20 11 -4z
m-37 -5 c-6 -8 -8 -20 -4 -27 5 -10 4 -10 -6 -1 -11 10 -11 15 0 28 7 8 15 15
17 15 3 0 0 -7 -7 -15z m60 -55 c-11 -7 -11 -10 -2 -10 7 0 10 -5 6 -11 -4 -8
-9 -7 -15 2 -9 15 -3 29 14 29 7 0 6 -4 -3 -10z m-3540 -20 c0 -5 -2 -10 -4
-10 -3 0 -8 5 -11 10 -3 6 -1 10 4 10 6 0 11 -4 11 -10z m-35 -26 c14 -11 16
-18 8 -21 -7 -3 -13 -11 -13 -19 0 -9 -4 -13 -9 -10 -5 3 -7 15 -4 26 4 15 0
20 -16 20 -12 0 -19 5 -16 10 9 14 27 12 50 -6z m3550 6 c-3 -6 5 -10 19 -10
14 0 28 -5 31 -10 4 -6 12 -7 18 -4 8 5 9 4 2 -3 -5 -6 -21 -14 -35 -18 -22
-7 -23 -6 -11 9 12 14 10 16 -17 16 -24 0 -30 4 -26 15 4 8 10 15 16 15 5 0 6
-4 3 -10z m-3598 -42 c-3 -8 -6 -5 -6 6 -1 11 2 17 5 13 3 -3 4 -12 1 -19z
m38 -75 c3 -13 2 -23 -3 -23 -5 0 -12 14 -14 30 -5 33 6 28 17 -7z"/>
<path d="M5415 6081 c-3 -5 -1 -12 5 -16 5 -3 10 1 10 9 0 18 -6 21 -15 7z"/>
<path d="M3946 6364 c-169 -26 -342 -82 -499 -160 -39 -20 -73 -37 -75 -39 -2
-2 273 -484 282 -493 3 -2 35 11 73 28 133 62 323 110 436 110 l27 0 0 285 0
285 -77 -1 c-43 -1 -118 -7 -167 -15z m-36 -93 c0 -4 -25 -7 -56 -6 -45 2 -60
-2 -76 -19 -19 -19 -17 -7 3 19 9 12 129 18 129 6z m-25 -21 c-3 -5 -12 -10
-19 -10 -7 0 -21 -9 -32 -21 -12 -13 -26 -18 -40 -15 -11 3 -24 3 -28 -1 -11
-11 -36 -12 -36 -1 0 6 7 8 15 4 8 -3 15 -1 15 5 0 6 11 8 29 4 20 -4 32 -2
38 8 8 14 42 36 56 37 5 0 5 -4 2 -10z m19 -28 c3 -5 -1 -9 -9 -9 -8 0 -12 4
-9 9 3 4 7 8 9 8 2 0 6 -4 9 -8z m23 -27 c-15 -16 -19 -13 -11 9 3 9 10 13 15
10 5 -3 3 -11 -4 -19z m-55 -14 c2 -17 1 -28 -4 -25 -8 5 -12 54 -4 54 2 0 6
-13 8 -29z m-130 -5 c6 4 6 -2 -1 -15 -7 -11 -14 -21 -17 -21 -3 0 -2 5 2 12
4 7 3 8 -4 4 -22 -13 -36 -81 -24 -115 6 -18 7 -29 2 -26 -5 3 -14 20 -19 38
l-9 32 -1 -32 c-1 -17 4 -35 9 -38 6 -3 10 -11 10 -16 0 -6 -4 -7 -10 -4 -22
13 -8 -17 18 -41 l27 -25 -36 22 c-27 17 -35 29 -33 46 1 13 -2 23 -7 23 -5 0
-9 23 -9 50 0 28 3 50 8 50 4 0 6 -21 5 -47 -1 -28 1 -36 4 -18 2 17 11 34 19
38 14 8 20 38 7 36 -21 -3 -33 2 -27 12 5 8 9 8 14 -1 5 -8 9 -7 13 4 4 9 2
16 -4 16 -6 0 -7 5 -3 11 4 8 9 8 13 1 4 -7 12 -8 21 -2 11 7 12 10 2 10 -7 0
-10 5 -6 11 5 8 10 6 16 -5 5 -9 14 -14 20 -10z m283 -6 c0 -8 6 -19 13 -23 6
-4 12 -13 12 -20 0 -8 -2 -9 -8 -1 -4 6 -18 17 -31 24 -21 11 -23 10 -17 -5 5
-15 4 -16 -9 -5 -23 19 -18 33 10 28 13 -3 22 -1 19 3 -3 5 -19 9 -35 9 -17 0
-28 4 -25 9 9 14 71 -3 71 -19z m-53 -38 c7 -7 19 -12 28 -12 13 0 13 -1 0
-10 -10 -6 -11 -10 -2 -10 7 0 12 -14 11 -37 -1 -24 -3 -30 -6 -15 -2 12 -9
20 -14 17 -5 -3 -6 1 -3 9 6 17 -12 56 -27 56 -6 0 -6 -7 1 -20 6 -11 8 -20 6
-20 -3 0 -12 13 -21 29 -13 26 -13 29 0 27 9 -1 21 -8 27 -14z m-85 2 c-3 -3
3 -15 13 -26 23 -25 35 -65 15 -48 -8 7 -13 16 -12 20 1 4 -2 8 -8 8 -19 1
-27 52 -8 52 4 0 4 -3 0 -6z m-107 -90 c0 -18 -3 -35 -8 -38 -4 -2 -6 14 -4
37 2 34 1 39 -8 25 -15 -24 -27 -22 -33 5 -6 22 -6 22 10 2 15 -19 15 -19 10
8 -4 27 -4 27 14 11 11 -10 19 -31 19 -50z m127 -16 c-3 -8 -6 -5 -6 6 -1 11
2 17 5 13 3 -3 4 -12 1 -19z m73 -12 c-4 -19 -5 -38 -1 -41 3 -4 -1 -5 -9 -3
-8 2 -14 -2 -15 -9 0 -20 -22 -37 -29 -24 -4 6 0 11 9 11 13 0 14 2 3 14 -7 8
-17 11 -22 8 -5 -3 -6 0 -2 7 4 6 11 9 16 6 5 -3 12 5 16 17 5 18 29 45 40 48
1 0 -2 -16 -6 -34z m-220 14 c0 -5 -2 -10 -4 -10 -3 0 -8 5 -11 10 -3 6 -1 10
4 10 6 0 11 -4 11 -10z m243 -25 c-3 -9 -8 -14 -10 -11 -3 3 -2 9 2 15 9 16
15 13 8 -4z m-375 -8 c7 -8 7 -18 2 -27 -6 -8 -10 -12 -11 -7 -1 4 -2 10 -3
15 -1 4 -5 13 -9 20 -11 16 7 16 21 -1z m87 -7 c3 -5 1 -10 -4 -10 -6 0 -11 5
-11 10 0 6 2 10 4 10 3 0 8 -4 11 -10z m72 -52 c-3 -8 -6 -5 -6 6 -1 11 2 17
5 13 3 -3 4 -12 1 -19z m-120 6 c-3 -3 -12 -4 -19 -1 -8 3 -5 6 6 6 11 1 17
-2 13 -5z m113 -30 c0 -2 -11 -4 -25 -4 -14 0 -25 4 -25 9 0 4 11 6 25 3 14
-2 25 -6 25 -8z m70 12 c0 -2 -7 -7 -16 -10 -8 -3 -12 -2 -9 4 6 10 25 14 25
6z m40 -6 c8 -5 11 -10 5 -10 -5 0 -17 5 -25 10 -8 5 -10 10 -5 10 6 0 17 -5
25 -10z m-97 -35 c-37 -16 -44 -30 -12 -22 16 4 19 3 11 -5 -12 -12 -42 -4
-42 10 0 11 39 31 60 31 8 0 0 -6 -17 -14z m87 -5 c-6 -11 -20 -20 -33 -19
l-22 0 21 9 c12 5 25 13 29 19 11 19 16 12 5 -9z"/>
<path d="M3695 6149 c-4 -6 -5 -12 -2 -15 2 -3 7 2 10 11 7 17 1 20 -8 4z"/>
<path d="M3951 5993 c-10 -26 -10 -27 4 -9 8 11 15 23 15 28 0 15 -7 8 -19
-19z"/>
<path d="M4220 6098 l0 -284 105 -13 c124 -14 248 -48 353 -97 42 -19 79 -31
83 -27 8 9 269 461 276 479 6 16 -164 97 -290 139 -141 47 -281 75 -414 82
l-113 6 0 -285z m267 71 c15 -6 37 -19 48 -29 11 -10 29 -21 40 -24 12 -3 9
-4 -7 -2 -16 2 -28 -1 -28 -5 0 -5 16 -9 36 -9 27 0 35 4 31 14 -8 20 35 56
75 62 46 8 104 -18 126 -55 9 -17 27 -34 39 -40 12 -5 27 -20 33 -31 11 -21
10 -22 -19 -15 -27 6 -31 4 -31 -16 0 -54 -74 -80 -104 -37 -21 30 -20 50 5
82 23 30 18 46 -15 46 -35 0 -47 -21 -40 -72 6 -46 -16 -108 -55 -151 -19 -23
-57 -45 -47 -28 5 7 -1 10 -15 8 -31 -3 -89 92 -89 148 0 44 7 59 30 68 10 4
8 6 -7 6 -12 1 -25 6 -28 11 -8 13 -48 13 -62 -1 -7 -7 -3 -18 14 -35 19 -19
23 -31 18 -52 -16 -70 -101 -69 -119 1 -6 25 -11 28 -31 23 -14 -4 -25 -4 -25
0 0 3 26 32 58 65 76 77 110 90 169 68z"/>
<path d="M4416 6151 c-4 -7 -5 -15 -2 -18 9 -9 19 4 14 18 -4 11 -6 11 -12 0z"/>
<path d="M4455 6150 c-7 -11 2 -30 15 -30 4 0 10 6 13 14 6 16 -19 30 -28 16z"/>
<path d="M4662 6151 c-10 -6 -10 -10 2 -20 18 -15 37 -6 29 14 -6 17 -12 18
-31 6z"/>
<path d="M4712 6149 c2 -7 10 -15 17 -17 8 -3 12 1 9 9 -2 7 -10 15 -17 17 -8
3 -12 -1 -9 -9z"/>
<path d="M4371 6131 c-10 -6 -10 -10 -1 -16 13 -8 24 -1 19 14 -3 6 -10 7 -18
2z"/>
<path d="M4760 6126 c0 -9 5 -16 10 -16 6 0 10 4 10 9 0 6 -4 13 -10 16 -5 3
-10 -1 -10 -9z"/>
<path d="M4495 6119 c-10 -15 1 -23 20 -15 9 3 13 10 10 16 -8 13 -22 13 -30
-1z"/>
<path d="M4622 6118 c3 -7 13 -15 24 -17 16 -3 17 -1 5 13 -16 19 -34 21 -29
4z"/>
<path d="M4507 6072 c-22 -24 -21 -31 3 -25 27 7 50 -14 48 -42 -1 -13 -6 -21
-11 -18 -5 3 -7 13 -4 23 4 16 1 17 -24 8 -36 -12 -36 -20 2 -86 38 -68 61
-67 106 3 18 27 33 55 33 61 0 13 -43 28 -48 16 -15 -42 -37 -40 -26 3 8 31
30 43 54 28 14 -9 17 -7 17 16 0 27 -2 27 -67 29 -54 2 -69 -1 -83 -16z m88
-142 c-3 -5 -12 -10 -20 -10 -8 0 -17 5 -20 10 -4 6 5 10 20 10 15 0 24 -4 20
-10z m2 -26 c-8 -8 -48 -13 -43 -6 2 4 14 8 26 9 12 1 20 0 17 -3z"/>
<path d="M4400 6011 c0 -25 6 -27 13 -6 4 8 2 17 -3 20 -6 4 -10 -3 -10 -14z"/>
<path d="M4734 6019 c-3 -6 -1 -16 5 -22 8 -8 11 -5 11 11 0 24 -5 28 -16 11z"/>
<path d="M3254 6091 c-111 -75 -226 -175 -315 -277 -71 -80 -189 -244 -189
-262 0 -6 24 -24 53 -40 113 -64 374 -215 403 -233 l32 -19 60 83 c69 95 182
206 271 266 33 23 61 44 61 46 0 6 -271 477 -280 488 -4 4 -47 -19 -96 -52z
m-208 -253 c5 -7 3 -8 -6 -3 -10 6 -12 4 -7 -7 9 -24 -25 -52 -43 -35 -10 10
-12 8 -6 -8 6 -16 5 -18 -5 -8 -10 10 -7 19 16 43 31 33 40 36 51 18z m61 -29
c-2 -29 -83 -110 -102 -102 -8 3 -15 7 -15 10 0 3 6 3 14 0 12 -5 100 73 97
87 -2 14 -1 26 3 26 3 0 4 -10 3 -21z m63 1 c0 -5 -4 -10 -9 -10 -6 0 -13 5
-16 10 -3 6 1 10 9 10 9 0 16 -4 16 -10z m38 -53 c2 -10 -4 -27 -13 -37 -17
-19 -16 -21 15 -50 24 -22 31 -36 26 -53 -3 -12 -1 -29 4 -37 7 -10 10 -11 10
-2 0 8 16 12 44 12 33 0 44 4 42 15 -1 8 -5 18 -9 21 -14 15 -6 26 9 13 9 -8
14 -22 11 -37 -3 -14 1 -26 10 -29 19 -8 34 -39 27 -58 -10 -25 -59 -45 -113
-45 -72 0 -112 36 -119 108 -3 40 -9 53 -25 58 -13 4 -23 1 -29 -10 -12 -21
-47 -21 -55 0 -3 9 2 23 12 32 16 16 17 16 10 -5 -7 -26 6 -30 25 -9 6 8 19
12 27 9 10 -4 14 -2 10 4 -4 6 3 19 15 29 12 11 18 13 13 5 -6 -10 -4 -12 4
-7 7 4 10 13 8 19 -2 7 2 18 10 25 20 21 16 34 -9 26 -21 -6 -21 -5 -9 10 18
21 45 17 49 -7z m-185 -94 c-3 -7 -9 -13 -14 -13 -5 0 -9 6 -9 13 0 8 6 14 14
14 8 0 12 -6 9 -14z m275 -51 c2 -7 -2 -10 -12 -6 -9 3 -16 11 -16 16 0 13 23
5 28 -10z m92 -22 c-19 -13 -30 -13 -30 0 0 6 10 10 23 10 18 0 19 -2 7 -10z"/>
<path d="M3175 5661 c-3 -5 -2 -12 3 -15 5 -3 9 1 9 9 0 17 -3 19 -12 6z"/>
<path d="M3205 5605 c0 -60 -18 -71 -23 -14 -2 19 -7 38 -12 42 -13 15 1 -87
17 -111 19 -30 59 -45 107 -39 44 6 82 37 73 61 -5 12 -12 10 -36 -14 -16 -17
-35 -30 -43 -30 -7 0 -1 10 15 21 15 11 27 29 27 40 0 28 -17 23 -32 -8 -13
-27 -48 -44 -48 -24 0 6 6 11 14 11 21 0 30 20 17 33 -8 8 -11 6 -11 -7 0 -12
-6 -16 -22 -14 -19 2 -23 10 -26 48 -5 65 -18 69 -17 5z m45 -103 c-12 -4 -50
17 -50 28 0 5 13 1 30 -8 16 -9 25 -18 20 -20z"/>
<path d="M4928 5912 c-75 -130 -138 -242 -140 -248 -2 -6 33 -38 77 -71 91
-68 212 -192 269 -276 l39 -57 33 19 c18 11 127 74 243 141 116 67 211 127
211 133 0 20 -105 168 -180 255 -85 98 -200 200 -320 282 -49 33 -90 60 -92
60 -2 0 -65 -107 -140 -238z m60 -57 c2 -26 7 -57 12 -70 10 -26 82 -69 95
-57 4 4 6 1 4 -6 -5 -15 -10 -15 -56 4 -38 16 -63 49 -63 84 0 20 -2 22 -10
10 -20 -30 -11 -70 23 -105 19 -19 37 -32 40 -28 8 7 37 -15 37 -28 0 -5 -20
-9 -45 -9 -25 0 -45 4 -45 9 0 4 12 7 28 4 23 -3 24 -2 7 6 -11 5 -15 10 -10
11 6 0 -2 7 -17 16 -32 17 -43 48 -35 107 4 38 22 97 29 97 2 0 4 -20 6 -45z
m401 -4 c18 -55 14 -118 -9 -141 -11 -11 -25 -20 -31 -20 -5 0 -8 -4 -4 -9 3
-5 -3 -12 -12 -15 -10 -3 -6 -4 10 -2 15 2 27 -1 27 -5 0 -5 -20 -9 -43 -9
-35 0 -46 -4 -56 -22 l-11 -23 6 24 6 24 -26 -19 c-14 -11 -23 -25 -21 -31 3
-8 -4 -13 -15 -13 -24 0 -26 22 -5 40 12 10 13 15 4 21 -7 4 7 6 29 5 23 -1
42 2 42 7 0 4 6 5 13 1 9 -6 9 -5 0 7 -10 12 -8 15 8 16 58 5 99 62 82 115
-10 30 -11 31 -12 8 -1 -14 -8 -36 -17 -48 -17 -24 -81 -55 -98 -48 -6 2 -3 5
7 5 9 1 17 5 17 9 0 4 13 13 30 19 34 13 48 42 51 107 3 50 10 49 28 -3z
m-181 -128 c-15 -2 -42 -2 -60 0 -18 2 -6 4 27 4 33 0 48 -2 33 -4z m-68 -83
c4 0 10 -6 13 -14 8 -20 -29 -12 -55 10 -13 13 -15 20 -7 25 7 4 19 1 26 -7 8
-8 18 -14 23 -14z m5 20 c3 -5 1 -10 -4 -10 -6 0 -11 5 -11 10 0 6 2 10 4 10
3 0 8 -4 11 -10z m-53 -50 c3 -16 1 -30 -4 -30 -4 0 -8 6 -8 14 0 8 -3 21 -6
30 -3 9 -2 16 4 16 5 0 12 -13 14 -30z m51 -44 c-16 -35 -36 -38 -47 -9 -5 13
-4 14 9 3 13 -11 15 -9 15 14 0 19 5 26 20 26 19 0 19 -1 3 -34z m84 -1 c9
-25 -4 -29 -17 -6 -7 15 -7 21 0 21 6 0 13 -7 17 -15z m26 -10 c-3 -9 -8 -14
-10 -11 -3 3 -2 9 2 15 9 16 15 13 8 -4z m-43 -33 c0 -4 -16 -8 -35 -8 -19 0
-35 4 -35 8 0 4 16 8 35 8 19 0 35 -4 35 -8z m-83 -24 c-3 -8 -6 -5 -6 6 -1
11 2 17 5 13 3 -3 4 -12 1 -19z m71 -5 c-10 -2 -28 -2 -40 0 -13 2 -5 4 17 4
22 1 32 -1 23 -4z m0 -20 c-10 -2 -28 -2 -40 0 -13 2 -5 4 17 4 22 1 32 -1 23
-4z"/>
<path d="M4200 5800 c0 -5 5 -10 11 -10 5 0 7 5 4 10 -3 6 -8 10 -11 10 -2 0
-4 -4 -4 -10z"/>
<path d="M3990 5760 c-124 -26 -325 -102 -318 -120 2 -4 43 -76 93 -162 l89
-155 56 24 c70 32 192 63 242 63 l38 0 0 185 0 185 -57 -1 c-32 0 -96 -9 -143
-19z m-84 -131 c8 -16 14 -34 14 -41 -1 -7 -7 1 -14 17 -7 17 -20 36 -29 44
-10 7 -17 18 -17 23 0 16 30 -12 46 -43z m150 16 c-15 -16 -26 -34 -26 -41 0
-7 -3 -19 -6 -28 -4 -12 0 -16 17 -17 24 -2 24 -2 2 -6 -13 -2 -23 -8 -23 -13
0 -19 23 -66 43 -90 l22 -25 -28 24 c-15 14 -32 42 -39 63 -10 35 -14 38 -49
38 -36 0 -39 -2 -49 -38 -5 -21 -22 -49 -37 -63 -19 -16 -22 -17 -11 -4 15 19
48 86 48 100 0 3 -12 5 -27 5 -14 0 -24 3 -20 6 3 3 35 6 70 5 63 -1 65 0 72
27 7 29 54 96 62 89 2 -3 -7 -17 -21 -32z"/>
<path d="M4220 5596 l0 -186 38 0 c51 0 182 -34 248 -64 l52 -24 91 158 c50
86 91 160 91 162 0 3 -37 22 -82 43 -102 46 -248 84 -355 92 l-83 6 0 -187z
m143 77 c-7 -2 -19 -2 -25 0 -7 3 -2 5 12 5 14 0 19 -2 13 -5z m187 -3 c0 -5
-7 -7 -15 -3 -9 3 -25 -3 -35 -12 -11 -10 -20 -13 -20 -7 0 14 29 31 53 32 9
0 17 -4 17 -10z m-149 -27 c13 -16 12 -17 -3 -4 -10 7 -18 15 -18 17 0 8 8 3
21 -13z m178 -23 c0 -10 -3 -8 -9 5 -12 27 -12 43 0 25 5 -8 9 -22 9 -30z
m-272 -2 c-3 -7 -5 -2 -5 12 0 14 2 19 5 13 2 -7 2 -19 0 -25z m166 -8 c-3
-11 -10 -23 -16 -27 -5 -3 -8 -2 -5 3 3 5 8 17 11 27 9 24 16 22 10 -3z m-27
-107 c-11 -11 -17 4 -9 23 7 18 8 18 11 1 2 -10 1 -21 -2 -24z m-6 -50 c-11
-17 -11 -17 -6 0 3 10 6 24 7 30 0 9 2 9 5 0 3 -7 0 -20 -6 -30z"/>
<path d="M3574 5581 c-38 -26 -100 -79 -138 -117 -69 -69 -169 -201 -164 -216
2 -4 72 -48 157 -97 l155 -89 29 41 c54 76 105 124 216 203 3 3 -179 324 -184
324 -1 0 -33 -22 -71 -49z m-64 -219 c0 31 25 40 50 18 28 -25 29 -25 55 0
l21 20 29 -30 c16 -17 24 -30 18 -30 -5 0 -18 9 -28 20 l-18 20 -24 -22 -23
-21 -23 21 c-23 21 -54 31 -43 13 3 -5 -1 -14 -9 -21 -13 -11 -20 -9 -40 10
l-25 23 -25 -23 c-14 -13 -27 -21 -30 -18 -3 3 8 18 26 32 l32 27 28 -27 c21
-20 29 -24 29 -12z m-35 -52 l18 -20 24 22 c13 12 23 17 23 12 0 -6 -10 -20
-23 -31 l-24 -20 -28 24 -28 24 -11 -22 c-6 -12 -18 -24 -26 -26 -13 -4 -13
-2 1 9 8 7 18 21 22 31 9 23 30 22 52 -3z m102 -14 c9 -4 25 2 37 13 21 20 21
20 48 -10 15 -16 24 -29 19 -29 -4 0 -16 9 -26 20 l-18 20 -24 -21 c-22 -22
-23 -22 -43 -4 -11 10 -19 25 -19 34 1 14 2 14 6 -1 2 -9 11 -19 20 -22z"/>
<path d="M4673 5469 l-92 -158 32 -23 c54 -38 148 -131 180 -178 17 -25 31
-46 32 -48 1 -1 74 40 163 91 l161 94 -46 68 c-53 79 -164 194 -243 252 -100
73 -83 82 -187 -98z m84 -64 c2 -17 1 -18 -3 -2 -4 13 -12 17 -25 14 -11 -3
-16 -1 -13 4 10 17 39 5 41 -16z m213 15 c11 -8 8 -9 -12 -4 -24 5 -28 3 -29
-17 0 -13 -3 -18 -6 -11 -13 33 16 52 47 32z m-185 -90 c7 -6 35 -10 61 -8 40
2 51 7 61 28 9 17 13 20 13 8 0 -9 -7 -24 -15 -32 -12 -12 -13 -20 -5 -35 5
-11 9 -30 9 -43 -2 -22 -2 -22 -6 2 -10 52 -68 79 -102 48 -8 -7 -11 -8 -8 -2
4 6 -2 19 -13 29 -11 10 -19 28 -19 39 2 20 2 20 6 -1 2 -12 10 -27 18 -33z
m-3 -75 c3 -13 1 -22 -3 -19 -9 5 -13 44 -5 44 2 0 6 -11 8 -25z m39 -53 c-7
-2 -18 1 -23 6 -8 8 -4 9 13 5 13 -4 18 -8 10 -11z m64 8 c-3 -5 -12 -10 -18
-10 -7 0 -6 4 3 10 19 12 23 12 15 0z"/>
<path d="M2678 5423 c-26 -54 -60 -137 -76 -184 -31 -88 -78 -287 -70 -295 3
-2 48 -7 102 -11 74 -5 96 -3 96 7 0 8 4 9 13 3 16 -14 354 -16 362 -3 4 6 11
8 16 5 5 -3 6 0 3 8 -7 19 37 150 75 226 l30 58 -241 139 c-133 76 -247 140
-253 142 -6 2 -32 -41 -57 -95z m127 -186 c-18 -26 -20 -88 -2 -106 8 -10 8
-12 0 -7 -6 3 -14 2 -18 -4 -13 -20 -34 -9 -44 23 -13 40 -7 62 27 99 30 32
60 28 37 -5z m136 -36 c13 -33 -6 -90 -29 -86 -9 2 -19 4 -22 5 -3 1 -9 2 -15
0 -5 -1 -4 4 3 11 17 18 15 80 -5 108 -9 14 -11 21 -5 17 7 -4 12 -2 12 5 0
18 50 -31 61 -60z m-77 -99 c3 -5 -8 -9 -24 -9 -16 0 -27 4 -24 9 3 4 14 8 24
8 10 0 21 -4 24 -8z m-153 -13 c-30 -12 -24 -19 11 -12 15 3 25 9 22 14 -9 14
6 10 22 -6 14 -13 12 -15 -20 -15 -19 0 -38 -4 -41 -10 -3 -5 -11 -10 -16 -10
-6 0 -7 5 -3 11 4 7 1 10 -7 7 -8 -3 -13 -12 -11 -21 1 -8 -2 -18 -8 -22 -6
-3 -7 0 -4 9 3 9 2 16 -4 16 -6 0 -13 -6 -15 -12 -3 -8 -6 -6 -6 5 -1 9 5 17
12 17 8 0 22 9 32 20 10 11 28 20 39 19 19 0 19 -1 -3 -10z m225 3 c-2 -4 11
-12 29 -18 36 -11 37 2 1 16 -21 9 -21 9 0 9 11 1 29 -8 39 -19 10 -11 24 -20
32 -20 7 0 13 -8 12 -17 0 -11 -3 -13 -6 -5 -2 6 -9 12 -15 12 -6 0 -7 -7 -4
-16 3 -9 2 -12 -5 -9 -6 4 -8 14 -5 22 4 10 1 13 -13 8 -11 -3 -22 -1 -26 5
-3 5 -17 10 -31 10 -18 0 -23 -4 -18 -12 6 -9 3 -9 -9 0 -13 11 -14 17 -4 27
13 15 32 20 23 7z m-185 -55 c-10 -9 -11 -8 -5 6 3 10 9 15 12 12 3 -3 0 -11
-7 -18z m-21 4 c0 -5 -10 -11 -22 -14 -22 -6 -22 -6 -4 8 23 17 26 18 26 6z
m213 -21 c3 -11 1 -18 -4 -14 -5 3 -9 12 -9 20 0 20 7 17 13 -6z m41 11 c4 -5
-3 -7 -14 -4 -23 6 -26 13 -6 13 8 0 17 -4 20 -9z m-243 -43 c-3 -21 -6 -26
-9 -15 -3 17 3 47 11 47 2 0 1 -15 -2 -32z m73 17 c-4 -8 -12 -15 -19 -15 -7
0 -18 7 -25 15 -11 13 -8 15 18 15 24 0 30 -4 26 -15z m96 0 c-7 -8 -18 -15
-25 -15 -7 0 -15 7 -19 15 -4 11 2 15 26 15 26 0 29 -2 18 -15z"/>
<path d="M2755 5200 c-3 -5 -1 -10 4 -10 6 0 11 5 11 10 0 6 -2 10 -4 10 -3 0
-8 -4 -11 -10z"/>
<path d="M2755 5160 c3 -5 8 -10 11 -10 2 0 4 5 4 10 0 6 -5 10 -11 10 -5 0
-7 -4 -4 -10z"/>
<path d="M2765 5130 c3 -5 8 -10 11 -10 2 0 4 5 4 10 0 6 -5 10 -11 10 -5 0
-7 -4 -4 -10z"/>
<path d="M2910 5200 c0 -5 5 -10 11 -10 5 0 7 5 4 10 -3 6 -8 10 -11 10 -2 0
-4 -4 -4 -10z"/>
<path d="M2910 5160 c0 -5 5 -10 10 -10 6 0 10 5 10 10 0 6 -4 10 -10 10 -5 0
-10 -4 -10 -10z"/>
<path d="M2900 5129 c0 -5 5 -7 10 -4 6 3 10 8 10 11 0 2 -4 4 -10 4 -5 0 -10
-5 -10 -11z"/>
<path d="M5440 5384 c-129 -74 -239 -139 -243 -143 -5 -5 2 -30 16 -57 38 -77
79 -197 74 -221 -2 -12 -1 -20 4 -18 4 3 10 1 14 -5 6 -9 146 -12 171 -3 16 6
4 66 -17 83 -16 13 -17 21 -9 50 5 19 12 56 15 82 3 26 17 63 31 83 l25 37
-41 -4 c-50 -5 -53 7 -2 16 55 9 62 8 56 -9 -4 -8 -1 -15 6 -15 7 0 1 -9 -13
-20 -28 -22 -47 -74 -47 -128 0 -18 -5 -42 -10 -53 -8 -15 -7 -19 3 -19 15 0
27 -29 27 -66 0 -24 22 -31 133 -41 77 -7 107 1 108 30 1 21 1 21 8 -3 7 -23
11 -25 66 -22 32 1 61 5 64 8 9 9 -29 173 -65 282 -35 104 -121 292 -133 292
-4 0 -112 -61 -241 -136z m255 -108 c46 -20 75 -69 75 -128 0 -58 -20 -149
-32 -142 -4 3 -8 -5 -8 -17 0 -12 -3 -20 -6 -16 -3 3 2 37 11 76 23 92 16 154
-19 190 -23 23 -35 26 -90 26 -50 0 -62 3 -54 13 14 16 81 15 123 -2z m-291
-31 c-4 -8 -11 -15 -16 -15 -6 0 -5 6 2 15 7 8 14 15 16 15 2 0 1 -7 -2 -15z
m-43 -127 c-9 -31 -9 -31 -10 -6 -1 30 11 67 16 51 2 -6 0 -26 -6 -45z m-1
-42 c0 -3 -4 -8 -10 -11 -5 -3 -10 -1 -10 4 0 6 5 11 10 11 6 0 10 -2 10 -4z"/>
<path d="M4130 5380 c-162 -17 -289 -78 -410 -200 -83 -82 -160 -195 -160
-233 0 -16 8 -18 68 -15 67 3 67 3 64 31 -4 34 3 34 31 1 18 -21 34 -27 85
-31 68 -6 78 3 33 30 -33 20 -61 72 -61 116 0 41 16 39 34 -3 8 -19 28 -41 44
-50 29 -15 133 -56 142 -56 2 0 -16 21 -42 48 -67 69 -79 103 -62 170 9 33 21
27 29 -17 7 -39 28 -65 113 -129 23 -18 42 -31 42 -28 0 3 -15 29 -32 58 -38
61 -43 128 -14 173 22 34 31 26 28 -28 -3 -43 -1 -47 77 -148 26 -34 32 -38
27 -19 -34 126 -33 159 10 209 28 34 51 33 33 -1 -19 -35 -12 -90 20 -158 l31
-65 0 63 c0 71 15 108 60 146 46 38 62 22 25 -24 -21 -26 -23 -56 -11 -142
l12 -83 13 50 c21 87 42 118 94 144 51 25 76 21 41 -8 -38 -31 -54 -67 -62
-144 -4 -42 -7 -77 -6 -77 1 0 16 25 33 55 17 31 46 64 64 75 33 21 107 27
107 10 0 -5 -6 -10 -14 -10 -27 0 -74 -51 -90 -97 -17 -51 -14 -64 12 -45 58
42 81 52 119 52 23 0 48 -3 57 -6 25 -10 19 -24 -11 -24 -32 -1 -80 -24 -66
-33 15 -10 623 -5 629 4 7 12 -28 121 -68 210 -23 52 -35 68 -46 64 -9 -3 -82
-44 -164 -91 l-148 -86 20 -38 c23 -46 24 -50 8 -50 -7 0 -28 28 -45 63 -131
251 -406 397 -693 367z m860 -350 c0 -5 -7 -7 -15 -4 -8 4 -15 8 -15 10 0 2 7
4 15 4 8 0 15 -4 15 -10z m220 6 c0 -3 -4 -8 -10 -11 -5 -3 -10 -1 -10 4 0 6
5 11 10 11 6 0 10 -2 10 -4z m-166 -24 c14 -8 81 -6 94 2 7 4 12 2 12 -3 0 -6
-4 -11 -10 -11 -5 0 -11 -12 -11 -27 l-2 -28 -4 28 c-4 22 -9 27 -34 27 -23 0
-29 -5 -30 -22 l-2 -23 -4 22 c-3 14 -14 25 -29 29 -13 3 -24 10 -24 15 0 8
22 3 44 -9z m136 8 c0 -5 -5 -10 -11 -10 -5 0 -7 5 -4 10 3 6 8 10 11 10 2 0
4 -4 4 -10z"/>
<path d="M3243 5208 c-31 -41 -108 -252 -98 -268 3 -6 31 -10 61 -10 l55 0 -3
47 c-2 35 -7 49 -20 51 -10 2 -19 -5 -23 -18 -4 -12 -9 -19 -12 -17 -10 11 19
47 38 47 14 0 21 -9 26 -30 7 -38 14 -38 35 0 9 17 24 30 32 30 16 0 37 -30
35 -52 0 -7 -5 -1 -11 15 -5 15 -16 27 -24 27 -13 0 -54 -68 -54 -90 0 -14 63
-13 78 2 9 9 12 9 12 0 0 -19 135 -16 153 3 12 11 17 12 21 2 3 -6 4 -3 1 8
-3 11 2 33 10 49 9 16 12 33 8 37 -8 8 -302 179 -307 179 -2 0 -8 -6 -13 -12z"/>
<path d="M4160 5176 c0 -3 9 -43 21 -87 11 -44 18 -92 15 -105 -5 -20 -3 -24
14 -24 41 0 38 32 -13 153 -23 55 -37 79 -37 63z"/>
<path d="M4291 5114 c-1 -39 -7 -91 -15 -117 -13 -42 -12 -46 5 -50 40 -11 47
45 24 168 l-13 70 -1 -71z"/>
<path d="M4040 5152 c0 -7 18 -47 40 -88 22 -42 40 -84 40 -95 0 -12 7 -19 20
-19 40 0 24 52 -40 130 -20 25 -42 54 -48 65 -6 11 -12 14 -12 7z"/>
<path d="M4407 5113 c-8 -16 -20 -50 -26 -78 -7 -27 -19 -60 -27 -72 -15 -23
-6 -37 19 -27 21 8 37 57 37 110 0 23 4 54 10 68 13 34 4 33 -13 -1z"/>
<path d="M3920 5095 c0 -3 27 -35 60 -70 33 -35 60 -69 60 -74 0 -13 25 -20
40 -11 11 7 11 13 -2 32 -15 23 -158 134 -158 123z"/>
<path d="M4503 5037 c-30 -38 -58 -96 -50 -103 4 -4 12 -3 18 3 11 11 60 123
54 123 -2 0 -12 -10 -22 -23z"/>
<path d="M3855 4985 c40 -34 113 -61 126 -48 7 7 -18 20 -73 41 -81 30 -82 31
-53 7z"/>
<path d="M4590 4955 c-7 -8 -8 -15 -2 -15 5 0 15 7 22 15 7 8 8 15 2 15 -5 0
-15 -7 -22 -15z"/>
<path d="M3028 7765 c-7 -7 1 -490 8 -522 6 -30 17 -29 57 7 41 36 86 131 94
199 8 66 -12 164 -45 224 -36 68 -93 113 -114 92z"/>
<path d="M4667 7764 c-6 -7 1 -501 8 -521 15 -45 105 55 131 144 23 80 16 192
-17 263 -38 79 -99 137 -122 114z"/>
<path d="M11145 7440 c28 -12 37 -12 30 0 -3 6 -16 10 -28 9 -21 0 -21 -1 -2
-9z"/>
<path d="M12770 7340 c0 -5 7 -10 15 -10 8 0 15 5 15 10 0 6 -7 10 -15 10 -8
0 -15 -4 -15 -10z"/>
<path d="M9029 6111 c7 -5 10 -14 7 -20 -11 -17 -2 -13 24 9 l23 20 -34 0
c-23 0 -30 -3 -20 -9z"/>
<path d="M8920 6101 c0 -15 38 -20 55 -7 14 10 11 12 -19 14 -20 2 -36 -1 -36
-7z"/>
<path d="M8994 6039 c-3 -6 6 -24 22 -40 20 -21 30 -26 36 -17 11 18 10 22
-11 46 -20 24 -36 28 -47 11z"/>
<path d="M8923 6018 c-2 -16 1 -18 10 -9 7 7 8 14 1 21 -6 6 -10 2 -11 -12z"/>
<path d="M9125 5829 c-4 -6 -5 -12 -2 -15 2 -3 7 2 10 11 7 17 1 20 -8 4z"/>
</g>
</svg>
